<svg id="Layer_1" enable-background="new 0 0 512 512" height="512" viewBox="0 0 512 512" width="512" xmlns="http://www.w3.org/2000/svg"><path clip-rule="evenodd" d="m256 0c85.453 0 154.726 69.273 154.726 154.727 0 95.167-78.154 199.991-147.829 257.886-3.988 3.313-9.641 3.315-13.63.003-69.892-58.022-147.994-162.208-147.994-257.889.001-85.454 69.274-154.727 154.727-154.727zm127.963 378.262c29.121 6.34 52.796 14.648 68.701 24.196 11.575 6.949 18.125 13.606 18.125 19.351 0 11.871-21.366 24.546-55.908 35.44l-.06.02-.007-.02c-40.39 12.738-96.52 20.617-158.814 20.617s-118.424-7.879-158.813-20.617c-.249-.078-.497-.15-.747-.216-34.141-10.845-55.228-23.43-55.228-35.223 0-5.744 6.55-12.4 18.125-19.348 15.903-9.548 39.579-17.855 68.7-24.196 9.205-1.988 15.055-11.062 13.067-20.267s-11.062-15.055-20.267-13.067c-32.589 7.096-59.796 16.819-78.967 28.329-22.218 13.339-34.791 29.783-34.791 48.549 0 28.335 30.16 52.102 78.988 67.679.281.105.566.203.854.294 43.524 13.726 103.323 22.217 169.079 22.217s125.555-8.491 169.08-22.218l-.006-.019c49.335-15.571 79.848-39.452 79.848-67.954 0-18.766-12.573-35.212-34.792-48.551-19.172-11.51-46.378-21.234-78.967-28.329-9.205-1.988-18.279 3.862-20.267 13.067-1.988 9.204 3.862 18.278 13.067 20.266zm-127.963-302.461c-43.59 0-78.925 35.336-78.925 78.926 0 43.589 35.336 78.926 78.925 78.926s78.925-35.336 78.925-78.926c.001-43.59-35.335-78.926-78.925-78.926z" fill-rule="evenodd"/></svg>